<svg width="2532" height="1899" viewBox="0 0 2532 1899" fill="none" xmlns="http://www.w3.org/2000/svg">
<path d="M0 0H2532V1899H0V0Z" fill="#41479B"/>
<path d="M2532 1651.74L1595.69 949.502L2532 247.266V0H2202.31L1266 702.236L329.687 0H0V247.266L936.313 949.502L0 1651.74V1899H329.692L1266 1196.77L2202.31 1899H2532V1651.74Z" fill="white"/>
<path fill-rule="evenodd" clip-rule="evenodd" d="M0 98.9122V0H131.867L1265.99 850.596L2400.12 0H2531.99L2532 0.00950936V98.9025L1397.87 949.503L2532 1800.1V1899H2400.11L1265.99 1048.41L131.874 1899H0V1800.09L1134.12 949.503L0 98.9122Z" fill="#DC251C"/>
<path fill-rule="evenodd" clip-rule="evenodd" d="M949.5 633V0H1582.5V633H2532V1266H1582.5V1899H949.5V1266H0V633H949.5Z" fill="white"/>
<path fill-rule="evenodd" clip-rule="evenodd" d="M1107.75 791.25V0H1424.25V791.25H2532V1107.75H1424.25V1899H1107.75V1107.75H0V791.25H1107.75Z" fill="#DC251C"/>
</svg>
